# xmcd CD database file generated by OrangeCD 6.3
#
# Track frame offsets:
#	150
#	10685
#	27381
#	44328
#	63313
#	82655
#	99537
#	118521
#	133074
#	147670
#	162845
#	177683
#	194994
#
# Disc length: 2798 seconds
#
# Revision: 1
# Processed by: cddbd v1.5.2PL0 Copyright (c) Steve Scherf et al.
# Submitted via: OrangeCD 6.3
#
DISCID=b80aec0d
DTITLE=Heidi Hauge - Country Girl
DYEAR=2002
DGENRE=Country
TTITLE0=I'm Gonna Be A Country Girl Again
TTITLE1=Blue Rose Is
TTITLE2=Blanket On The Ground
TTITLE3=I Don't Wanna Play House
TTITLE4=That'll Be Me
TTITLE5=When You Let Go Of Me
TTITLE6=You Got Gold
TTITLE7=Honky Tonk Angels
TTITLE8=One Way Street
TTITLE9=Don't Tell Me What To Do
TTITLE10=A Song I Can Sing
TTITLE11=Take Me Back
TTITLE12=Coal Miner's Daughter
EXTD=
EXTT0=
EXTT1=
EXTT2=
EXTT3=
EXTT4=
EXTT5=
EXTT6=
EXTT7=
EXTT8=
EXTT9=
EXTT10=
EXTT11=
EXTT12=
PLAYORDER=
